<svg width="32" height="32" viewBox="0 0 32 32" fill="none" xmlns="http://www.w3.org/2000/svg">
<path opacity="0.9" d="M14.2222 19.8095V22.8571C11.3932 22.8571 8.68014 23.8204 6.67975 25.535C4.67936 27.2496 3.55556 29.5752 3.55556 32H0C0 28.7669 1.49841 25.6662 4.16559 23.38C6.83278 21.0939 10.4503 19.8095 14.2222 19.8095ZM14.2222 18.2857C8.32889 18.2857 3.55556 14.1943 3.55556 9.14286C3.55556 4.09143 8.32889 0 14.2222 0C20.1156 0 24.8889 4.09143 24.8889 9.14286C24.8889 14.1943 20.1156 18.2857 14.2222 18.2857ZM14.2222 15.2381C18.1511 15.2381 21.3333 12.5105 21.3333 9.14286C21.3333 5.77524 18.1511 3.04762 14.2222 3.04762C10.2933 3.04762 7.11111 5.77524 7.11111 9.14286C7.11111 12.5105 10.2933 15.2381 14.2222 15.2381ZM30.2222 24.381H32V32H17.7778V24.381H19.5556V22.8571C19.5556 21.6447 20.1175 20.482 21.1177 19.6247C22.1178 18.7673 23.4744 18.2857 24.8889 18.2857C26.3034 18.2857 27.6599 18.7673 28.6601 19.6247C29.6603 20.482 30.2222 21.6447 30.2222 22.8571V24.381ZM26.6667 24.381V22.8571C26.6667 22.453 26.4794 22.0654 26.146 21.7796C25.8126 21.4939 25.3604 21.3333 24.8889 21.3333C24.4174 21.3333 23.9652 21.4939 23.6318 21.7796C23.2984 22.0654 23.1111 22.453 23.1111 22.8571V24.381H26.6667Z" fill="#1E664D" fill-opacity="0.98"/>
</svg>
