<svg width="37" height="37" viewBox="0 0 37 37" fill="none" xmlns="http://www.w3.org/2000/svg">
<path d="M29.4584 29.25C30.4088 29.25 31.3202 29.6275 31.9922 30.2995C32.6642 30.9715 33.0417 31.883 33.0417 32.8333C33.0417 33.7837 32.6642 34.6951 31.9922 35.3671C31.3202 36.0391 30.4088 36.4166 29.4584 36.4166C28.5081 36.4166 27.5966 36.0391 26.9246 35.3671C26.2526 34.6951 25.8751 33.7837 25.8751 32.8333C25.8751 30.8446 27.4697 29.25 29.4584 29.25ZM0.791748 0.583313H6.6505L8.33467 4.16665H34.8334C35.3086 4.16665 35.7643 4.35541 36.1003 4.69141C36.4363 5.02742 36.6251 5.48313 36.6251 5.95831C36.6251 6.2629 36.5355 6.56748 36.4101 6.85415L29.9959 18.4462C29.3867 19.5391 28.2043 20.2916 26.8605 20.2916H13.5126L11.9001 23.2121L11.8463 23.4271C11.8463 23.5459 11.8935 23.6598 11.9775 23.7438C12.0615 23.8278 12.1755 23.875 12.2942 23.875H33.0417V27.4583H11.5417C10.5914 27.4583 9.67995 27.0808 9.00795 26.4088C8.33594 25.7368 7.95842 24.8253 7.95842 23.875C7.95842 23.2479 8.11966 22.6566 8.38841 22.155L10.8251 17.7654L4.37508 4.16665H0.791748V0.583313ZM11.5417 29.25C12.4921 29.25 13.4035 29.6275 14.0755 30.2995C14.7476 30.9715 15.1251 31.883 15.1251 32.8333C15.1251 33.7837 14.7476 34.6951 14.0755 35.3671C13.4035 36.0391 12.4921 36.4166 11.5417 36.4166C10.5914 36.4166 9.67995 36.0391 9.00795 35.3671C8.33594 34.6951 7.95842 33.7837 7.95842 32.8333C7.95842 30.8446 9.553 29.25 11.5417 29.25ZM27.6667 16.7083L32.6476 7.74998H10.0009L14.2292 16.7083H27.6667Z" fill="#1E664D" fill-opacity="0.98"/>
</svg>
