<svg width="36" height="36" viewBox="0 0 36 36" fill="none" xmlns="http://www.w3.org/2000/svg">
<g clip-path="url(#clip0_623_113)">
<path d="M40.1606 41.6536L26.4004 27.8951C25.3017 28.8311 24.0382 29.5554 22.6099 30.0681C21.1816 30.5808 19.746 30.8371 18.303 30.8371C14.7842 30.8371 11.806 29.6191 9.36839 27.1833C6.93074 24.7474 5.71191 21.7703 5.71191 18.2519C5.71191 14.7336 6.92927 11.755 9.36399 9.31619C11.7987 6.87737 14.7755 5.6565 18.2942 5.65357C21.813 5.65064 24.7927 6.86932 27.2332 9.3096C29.6738 11.7499 30.8941 14.7285 30.8941 18.2453C30.8941 19.7716 30.6238 21.2488 30.0833 22.6769C29.5427 24.1051 28.8322 25.3267 27.9518 26.3418L41.7119 40.098L40.1606 41.6536ZM18.3052 28.6378C21.2204 28.6378 23.6815 27.6344 25.6885 25.6277C27.6954 23.621 28.6989 21.1595 28.6989 18.2431C28.6989 15.3268 27.6954 12.866 25.6885 10.8608C23.6815 8.85552 21.2204 7.85217 18.3052 7.8507C15.39 7.84924 12.9282 8.85259 10.9198 10.8608C8.91133 12.8689 7.90785 15.3297 7.90931 18.2431C7.91078 21.1565 8.91426 23.6173 10.9198 25.6255C12.9252 27.6337 15.3863 28.637 18.303 28.6356" fill="#1E664D"/>
</g>
<defs>
<clipPath id="clip0_623_113">
<rect width="36" height="36" fill="white"/>
</clipPath>
</defs>
</svg>
